<?xml version="1.0" standalone="no"?>
<!DOCTYPE svg PUBLIC "-//W3C//DTD SVG 20010904//EN"
 "http://www.w3.org/TR/2001/REC-SVG-20010904/DTD/svg10.dtd">
<svg version="1.0" xmlns="http://www.w3.org/2000/svg"
 width="1024.000000pt" height="1024.000000pt" viewBox="0 0 1024.000000 1024.000000"
 preserveAspectRatio="xMidYMid meet">

<g transform="translate(0.000000,1024.000000) scale(0.100000,-0.100000)"
fill="#000000" stroke="none">
<path d="M0 5120 l0 -5120 5120 0 5120 0 0 5120 0 5120 -5120 0 -5120 0 0
-5120z m7651 2744 c12 -11 34 -45 50 -77 28 -54 29 -59 14 -86 -8 -17 -19 -33
-25 -36 -21 -13 -125 -151 -180 -239 -131 -208 -243 -445 -374 -794 -99 -263
-112 -295 -212 -495 -47 -93 -83 -171 -81 -173 2 -2 34 7 73 21 96 33 272 68
313 61 46 -7 77 -29 108 -78 23 -38 26 -54 30 -158 2 -63 0 -121 -5 -128 -7
-10 -15 -10 -43 2 -19 8 -83 25 -144 37 -95 21 -138 24 -315 24 -173 0 -214
-3 -265 -19 -33 -10 -85 -19 -116 -20 -46 -1 -63 4 -97 27 -52 37 -72 86 -72
181 0 97 23 170 121 383 78 170 93 226 70 261 -22 36 -45 4 -135 -193 -103
-225 -121 -257 -220 -404 -98 -146 -186 -233 -284 -279 -69 -33 -85 -37 -158
-37 -70 0 -88 4 -139 30 -72 37 -95 67 -105 136 -4 30 -8 48 -9 41 -2 -23 -72
-126 -120 -175 -59 -62 -112 -89 -171 -89 -95 0 -154 57 -167 160 l-6 50 -33
-67 c-38 -77 -112 -156 -169 -182 -51 -23 -145 -25 -191 -3 -47 22 -73 62 -88
135 l-12 61 -28 -41 c-40 -58 -184 -193 -228 -214 -44 -21 -139 -22 -177 -2
-61 31 -80 171 -40 301 12 38 59 148 105 244 89 187 107 240 81 240 -24 0
-150 -143 -229 -258 -80 -117 -127 -216 -186 -384 -73 -209 -100 -241 -201
-236 -45 3 -57 7 -74 29 -44 60 -31 154 45 347 24 59 45 112 47 117 2 6 -5 2
-15 -7 -10 -9 -31 -20 -46 -23 -16 -4 -28 -11 -28 -15 0 -15 -122 -224 -182
-312 -100 -146 -190 -214 -319 -238 -170 -33 -277 62 -287 252 -17 331 234
791 505 925 67 33 85 38 167 41 80 3 96 1 136 -20 25 -13 59 -42 76 -64 29
-39 31 -47 28 -110 -3 -72 -27 -202 -49 -266 -7 -21 -9 -35 -5 -33 37 23 225
379 265 503 15 46 21 52 44 52 29 0 104 -44 135 -78 16 -18 18 -33 14 -89 -3
-38 -13 -83 -22 -102 -30 -57 -11 -44 38 28 52 77 175 199 250 249 58 38 93
40 153 11 69 -33 77 -53 64 -150 -11 -85 -29 -133 -146 -394 -37 -82 -76 -174
-86 -204 -22 -64 -25 -121 -6 -121 26 0 104 58 156 116 50 55 55 66 82 174 32
124 107 291 181 407 25 37 82 107 127 155 134 141 251 187 357 139 23 -10 45
-24 49 -31 4 -6 46 85 97 212 159 396 237 553 314 635 35 37 46 43 83 43 73 0
133 -46 170 -131 l21 -46 -101 -179 c-173 -306 -326 -625 -441 -924 -151 -390
-180 -495 -140 -508 13 -4 156 134 185 178 9 14 28 69 41 122 82 322 260 596
457 703 70 38 79 40 161 40 96 0 123 -12 166 -75 28 -42 29 -106 2 -220 -32
-133 -91 -241 -180 -331 -86 -87 -148 -121 -261 -145 -76 -17 -79 -18 -94 -56
-8 -21 -15 -64 -15 -96 0 -135 99 -135 260 -1 127 106 238 275 354 544 l65
151 0 97 c-1 53 5 128 12 167 17 96 32 94 107 -17 73 -109 81 -115 165 -143
87 -28 99 -40 91 -93 -8 -61 -21 -98 -77 -227 -121 -283 -169 -445 -136 -466
15 -9 62 39 92 94 49 91 127 320 156 458 56 266 196 675 313 909 169 341 341
525 476 512 24 -3 52 -13 63 -23z m1238 -34 c60 -30 88 -71 106 -154 14 -62
15 -84 5 -130 -23 -112 -114 -255 -189 -299 l-31 -18 45 92 c53 108 61 181 24
214 -19 19 -21 19 -56 0 -42 -23 -100 -102 -182 -250 -87 -156 -235 -514 -219
-530 2 -3 68 -2 146 2 l141 6 65 87 c87 116 182 202 275 248 72 36 79 37 181
37 99 0 109 -2 147 -27 69 -45 93 -86 100 -166 7 -84 -18 -176 -78 -292 -97
-188 -256 -294 -461 -307 l-86 -6 -11 -43 c-16 -63 -13 -141 6 -181 24 -51 66
-73 137 -73 123 0 256 101 383 292 36 54 69 100 73 103 16 10 41 -8 56 -39 11
-22 11 -26 1 -14 -12 15 -16 11 -41 -40 -85 -174 -260 -375 -381 -439 -160
-84 -320 -82 -418 5 l-41 37 23 -33 c31 -45 84 -83 144 -103 44 -16 47 -18 22
-18 -73 -1 -138 53 -217 181 -78 128 -76 277 10 546 l11 33 -62 -6 c-34 -3
-93 -7 -131 -10 -38 -2 -70 -5 -71 -7 -15 -18 -180 -605 -205 -728 -22 -108
-26 -170 -10 -170 15 0 65 82 95 158 43 108 95 327 102 429 3 51 9 93 13 93 4
0 7 -54 8 -121 3 -264 -109 -681 -211 -787 -71 -74 -174 -97 -236 -53 -59 42
-75 90 -79 236 -4 154 15 267 77 446 38 110 46 146 21 97 -58 -113 -188 -266
-254 -297 -88 -43 -192 -14 -231 64 -25 51 -32 165 -15 260 17 96 84 296 180
533 44 109 80 210 80 225 0 36 39 61 82 53 45 -8 128 -49 156 -75 13 -13 22
-34 22 -51 0 -41 -39 -159 -137 -420 -94 -248 -129 -368 -113 -384 16 -16 58
22 131 118 75 98 214 359 204 384 -5 14 -3 13 13 -1 35 -32 34 -17 -2 23 -55
61 -43 140 27 176 17 9 33 18 35 19 1 1 14 42 27 91 99 370 423 896 605 982
59 27 138 29 189 2z m-1199 -254 c0 -2 -8 -10 -17 -17 -16 -13 -17 -12 -4 4
13 16 21 21 21 13z m-30 -40 c0 -2 -8 -10 -17 -17 -16 -13 -17 -12 -4 4 13 16
21 21 21 13z m441 -49 c148 -99 -85 -459 -273 -423 -18 3 -46 17 -62 29 -24
19 -29 32 -30 68 -1 62 53 166 129 248 92 98 168 124 236 78z m699 -11 c0 -2
-8 -10 -17 -17 -16 -13 -17 -12 -4 4 13 16 21 21 21 13z m-5815 -94 c91 -49
120 -127 119 -327 0 -134 -18 -219 -94 -439 -103 -298 -380 -850 -602 -1200
-184 -289 -257 -355 -408 -364 -90 -5 -115 9 -154 91 -65 135 -52 351 38 632
19 60 34 111 32 113 -2 1 -36 -52 -76 -120 -223 -378 -271 -457 -365 -598
-168 -252 -205 -284 -325 -284 -90 -1 -137 24 -172 89 -34 63 -52 160 -44 233
27 226 180 619 539 1382 174 370 206 469 177 540 -26 64 -76 50 -255 -68 -127
-83 -335 -290 -417 -412 -138 -208 -188 -365 -154 -483 40 -138 165 -143 286
-10 27 30 50 59 50 64 0 6 4 7 10 4 6 -3 10 -16 9 -28 0 -19 -1 -19 -7 -4 -6
13 -15 3 -40 -48 -59 -121 -158 -199 -284 -225 -62 -12 -112 -4 -178 30 -135
70 -189 284 -125 500 88 296 444 608 876 769 256 95 402 95 495 0 l39 -40 0
-117 c0 -115 -1 -120 -52 -267 -57 -164 -127 -340 -312 -777 -174 -411 -237
-611 -201 -633 32 -20 469 718 835 1413 31 57 43 72 62 72 33 0 163 -125 163
-157 0 -47 -49 -240 -129 -506 -113 -374 -141 -487 -147 -592 -9 -151 15 -148
123 14 116 174 271 508 380 819 122 352 155 585 119 855 -9 70 -10 100 -2 102
60 19 126 11 191 -23z m5182 -29 c-3 -10 -5 -2 -5 17 0 19 2 27 5 18 2 -10 2
-26 0 -35z m-57 -177 c0 -2 -8 -10 -17 -17 -16 -13 -17 -12 -4 4 13 16 21 21
21 13z m-30 -39 c0 -2 -10 -12 -22 -23 l-23 -19 19 23 c18 21 26 27 26 19z
m-279 -103 c22 -25 22 -26 3 -16 -12 6 -24 18 -28 27 -8 21 -3 19 25 -11z m72
-21 c-7 -2 -21 -2 -30 0 -10 3 -4 5 12 5 17 0 24 -2 18 -5z m-6513 -27 c0 -2
-8 -10 -17 -17 -16 -13 -17 -12 -4 4 13 16 21 21 21 13z m6578 -192 c-3 -14
-5 -12 -10 9 -3 19 -2 25 4 19 6 -6 8 -18 6 -28z m-21 -86 c-3 -8 -6 -5 -6 6
-1 11 2 17 5 13 3 -3 4 -12 1 -19z m-2326 -51 c-10 -9 -11 -8 -5 6 3 10 9 15
12 12 3 -3 0 -11 -7 -18z m716 -84 c-2 -16 -4 -5 -4 22 0 28 2 40 4 28 2 -13
2 -35 0 -50z m480 15 c-3 -8 -6 -5 -6 6 -1 11 2 17 5 13 3 -3 4 -12 1 -19z m0
-50 c-3 -7 -5 -2 -5 12 0 14 2 19 5 13 2 -7 2 -19 0 -25z m-490 -20 c-3 -8 -6
-5 -6 6 -1 11 2 17 5 13 3 -3 4 -12 1 -19z m193 4 c0 -5 -7 -17 -15 -28 -14
-18 -14 -17 -4 9 12 27 19 34 19 19z m-979 -49 c-12 -20 -14 -14 -5 12 4 9 9
14 11 11 3 -2 0 -13 -6 -23z m776 5 c-3 -8 -6 -5 -6 6 -1 11 2 17 5 13 3 -3 4
-12 1 -19z m1544 -5 c-12 -20 -14 -14 -5 12 4 9 9 14 11 11 3 -2 0 -13 -6 -23z
m-1070 -10 c-12 -20 -14 -14 -5 12 4 9 9 14 11 11 3 -2 0 -13 -6 -23z m340
-10 c-12 -20 -14 -14 -5 12 4 9 9 14 11 11 3 -2 0 -13 -6 -23z m-665 -40 c-14
-26 -25 -45 -26 -41 0 12 43 98 48 94 2 -2 -8 -26 -22 -53z m295 -16 c-10 -9
-11 -8 -5 6 3 10 9 15 12 12 3 -3 0 -11 -7 -18z m-2659 -29 c-6 -6 -7 0 -4 19
5 21 7 23 10 9 2 -10 0 -22 -6 -28z m2999 15 c-12 -20 -14 -14 -5 12 4 9 9 14
11 11 3 -2 0 -13 -6 -23z m-845 -50 c-13 -26 -32 -57 -40 -68 -9 -11 1 12 21
52 21 39 39 70 41 68 2 -2 -8 -25 -22 -52z m480 10 c-8 -15 -15 -25 -16 -21 0
12 23 58 27 54 3 -2 -2 -17 -11 -33z m-3755 0 c-12 -20 -14 -14 -5 12 4 9 9
14 11 11 3 -2 0 -13 -6 -23z m3447 -8 c-6 -14 -13 -23 -15 -21 -5 5 15 46 22
46 3 0 -1 -11 -7 -25z m-2737 -110 l-11 -40 5 40 c3 22 6 58 7 80 l1 40 4 -40
c2 -22 -1 -58 -6 -80z m3340 8 c-85 -173 -120 -241 -128 -246 -5 -3 31 73 80
169 48 96 90 174 92 174 2 0 -17 -44 -44 -97z m-4080 40 c-11 -21 -20 -35 -21
-31 0 12 33 78 38 74 2 -2 -6 -21 -17 -43z m3755 0 c-8 -15 -15 -25 -16 -21 0
12 23 58 27 54 3 -2 -2 -17 -11 -33z m-361 -112 c-37 -72 -74 -138 -81 -148
-8 -10 21 50 63 134 43 83 80 150 81 148 2 -2 -26 -62 -63 -134z m1423 78
c-11 -33 -22 -58 -24 -56 -4 3 7 37 31 105 2 6 6 12 9 12 3 0 -5 -27 -16 -61z
m-3222 14 c-8 -15 -15 -25 -16 -21 0 12 23 58 27 54 3 -2 -2 -17 -11 -33z
m4311 -15 c-3 -7 -5 -2 -5 12 0 14 2 19 5 13 2 -7 2 -19 0 -25z m-2676 -26
c-11 -16 -28 -35 -38 -43 -9 -8 -2 5 17 29 38 48 52 57 21 14z m495 -9 c-8
-15 -15 -25 -16 -21 0 12 23 58 27 54 3 -2 -2 -17 -11 -33z m-2476 -20 c-29
-36 -153 -198 -193 -253 -11 -16 -14 -18 -8 -5 24 52 212 295 228 295 3 0 -9
-17 -27 -37z m-1334 -89 c-30 -60 -55 -106 -55 -102 -1 11 103 218 107 214 2
-2 -22 -53 -52 -112z m1623 27 c-18 -39 -34 -70 -36 -68 -2 2 11 36 28 76 18
39 34 70 36 68 2 -2 -11 -36 -28 -76z m-819 -1 c-15 -57 -21 -46 -7 14 6 27
13 44 15 38 2 -6 -2 -29 -8 -52z m2966 -21 c-14 -35 -25 -60 -25 -55 -1 14 41
127 46 123 2 -3 -7 -33 -21 -68z m2221 39 c-3 -8 -6 -5 -6 6 -1 11 2 17 5 13
3 -3 4 -12 1 -19z m-2747 -1 c0 -2 -10 -12 -22 -23 l-23 -19 19 23 c18 21 26
27 26 19z m-50 -42 c0 -2 -10 -9 -22 -15 -22 -11 -22 -10 -4 4 21 17 26 19 26
11z m1651 -32 c-12 -20 -14 -14 -5 12 4 9 9 14 11 11 3 -2 0 -13 -6 -23z
m-2340 -20 c-12 -20 -14 -14 -5 12 4 9 9 14 11 11 3 -2 0 -13 -6 -23z m566 -9
c-3 -3 -12 -4 -19 -1 -8 3 -5 6 6 6 11 1 17 -2 13 -5z m-4276 -31 c-12 -20
-14 -14 -5 12 4 9 9 14 11 11 3 -2 0 -13 -6 -23z m4941 -5 c-8 -8 -9 -4 -5 13
4 13 8 18 11 10 2 -7 -1 -18 -6 -23z m-3817 -68 c-14 -27 -28 -50 -30 -50 -3
0 6 23 20 50 14 28 28 50 30 50 3 0 -6 -22 -20 -50z m3812 13 c-3 -10 -5 -4
-5 12 0 17 2 24 5 18 2 -7 2 -21 0 -30z m-2186 0 c-12 -20 -14 -14 -5 12 4 9
9 14 11 11 3 -2 0 -13 -6 -23z m1819 13 c0 -2 -8 -10 -17 -17 -16 -13 -17 -12
-4 4 13 16 21 21 21 13z m1620 -10 c0 -2 -8 -10 -17 -17 -16 -13 -17 -12 -4 4
13 16 21 21 21 13z m-2093 -38 c-3 -7 -5 -2 -5 12 0 14 2 19 5 13 2 -7 2 -19
0 -25z m443 8 c0 -2 -8 -10 -17 -17 -16 -13 -17 -12 -4 4 13 16 21 21 21 13z
m1620 -9 c0 -2 -19 -21 -42 -42 l-43 -40 40 43 c36 39 45 47 45 39z m-7010
-17 c8 -5 11 -10 5 -10 -5 0 -17 5 -25 10 -8 5 -10 10 -5 10 6 0 17 -5 25 -10z
m3143 -65 c-20 -41 -39 -73 -41 -71 -4 5 66 146 73 146 3 0 -12 -34 -32 -75z
m2217 52 c0 -2 -12 -14 -27 -28 l-28 -24 24 28 c23 25 31 32 31 24z m1247 -29
c-3 -7 -5 -2 -5 12 0 14 2 19 5 13 2 -7 2 -19 0 -25z m770 -10 c-3 -7 -5 -2
-5 12 0 14 2 19 5 13 2 -7 2 -19 0 -25z m-760 -100 c-2 -18 -4 -4 -4 32 0 36
2 50 4 33 2 -18 2 -48 0 -65z m-1307 79 c0 -1 -24 -25 -52 -52 l-53 -50 50 53
c46 48 55 57 55 49z m-3415 -37 c-9 -16 -18 -30 -21 -30 -2 0 2 14 11 30 9 17
18 30 21 30 2 0 -2 -13 -11 -30z m-448 -22 c-3 -8 -6 -5 -6 6 -1 11 2 17 5 13
3 -3 4 -12 1 -19z m1273 -35 c-18 -32 -37 -62 -43 -68 -6 -5 1 10 15 35 14 25
31 55 37 68 6 12 14 22 17 22 3 0 -9 -26 -26 -57z m817 25 c-3 -7 -5 -2 -5 12
0 14 2 19 5 13 2 -7 2 -19 0 -25z m1133 15 c0 -5 -10 -19 -21 -33 l-21 -25 18
33 c18 32 24 38 24 25z m2687 -15 c-3 -8 -6 -5 -6 6 -1 11 2 17 5 13 3 -3 4
-12 1 -19z m-6626 -35 c-12 -20 -14 -14 -5 12 4 9 9 14 11 11 3 -2 0 -13 -6
-23z m6612 -34 c-6 -6 -7 3 -4 23 4 28 6 29 9 9 2 -13 0 -27 -5 -32z m-6293
-9 c-11 -22 -23 -40 -25 -40 -3 0 4 18 15 40 11 22 23 40 25 40 3 0 -4 -18
-15 -40z m3705 0 c10 -11 16 -20 13 -20 -3 0 -13 9 -23 20 -10 11 -16 20 -13
20 3 0 13 -9 23 -20z m-1054 -18 c-5 -9 -19 -26 -32 -37 -17 -15 -15 -10 7 17
32 41 40 48 25 20z m889 4 c0 -2 -8 -10 -17 -17 -16 -13 -17 -12 -4 4 13 16
21 21 21 13z m-3173 -108 c-2 -18 -4 -4 -4 32 0 36 2 50 4 33 2 -18 2 -48 0
-65z m1238 62 c-9 -16 -18 -30 -21 -30 -2 0 2 14 11 30 9 17 18 30 21 30 2 0
-2 -13 -11 -30z m-1650 -20 c-9 -16 -18 -30 -21 -30 -2 0 2 14 11 30 9 17 18
30 21 30 2 0 -2 -13 -11 -30z m1615 -40 c-6 -11 -13 -20 -16 -20 -2 0 0 9 6
20 6 11 13 20 16 20 2 0 0 -9 -6 -20z m1010 17 c0 -2 -15 -16 -32 -33 l-33
-29 29 33 c28 30 36 37 36 29z m-1885 -57 c-9 -16 -18 -30 -21 -30 -2 0 2 14
11 30 9 17 18 30 21 30 2 0 -2 -13 -11 -30z m-785 0 c-6 -11 -13 -20 -16 -20
-2 0 0 9 6 20 6 11 13 20 16 20 2 0 0 -9 -6 -20z m1610 -39 c-5 -11 -15 -23
-21 -27 -6 -3 -3 5 6 20 20 30 30 35 15 7z m731 -18 c13 -16 12 -17 -3 -4 -10
7 -18 15 -18 17 0 8 8 3 21 -13z m-771 -37 c0 -2 -8 -10 -17 -17 -16 -13 -17
-12 -4 4 13 16 21 21 21 13z m440 -19 c0 -2 -10 -12 -22 -23 l-23 -19 19 23
c18 21 26 27 26 19z m3322 -51 c278 -29 405 -60 456 -113 31 -34 46 -67 20
-45 -15 11 -244 29 -493 37 -174 6 -639 -7 -915 -25 -547 -37 -1211 -117
-1742 -210 -1287 -227 -2329 -539 -2786 -836 -45 -30 -87 -54 -92 -54 -13 0
-13 215 0 304 19 128 57 163 277 256 443 188 1122 360 1948 495 832 136 1488
198 2260 214 401 8 862 -2 1067 -23z m823 -36 c10 -11 16 -20 13 -20 -3 0 -13
9 -23 20 -10 11 -16 20 -13 20 3 0 13 -9 23 -20z m-5555 -84 c0 -2 -8 -10 -17
-17 -16 -13 -17 -12 -4 4 13 16 21 21 21 13z m6353 -132 c76 -32 95 -48 118
-99 14 -33 16 -53 10 -115 -16 -157 -103 -250 -233 -250 -40 0 -33 12 -97
-165 l-22 -60 54 -56 c58 -59 84 -118 89 -196 3 -39 6 -44 43 -59 22 -9 68
-29 101 -45 34 -16 64 -29 68 -29 4 0 19 11 34 25 62 57 135 70 207 35 126
-61 156 -265 55 -373 -35 -38 -42 -41 -102 -45 -51 -3 -73 0 -105 16 -74 38
-133 126 -133 199 0 33 -2 35 -102 83 -91 44 -103 48 -112 33 -36 -64 -125
-108 -221 -107 -65 0 -81 4 -159 42 -5 3 -5 -2 -1 -9 4 -8 -9 2 -29 21 -52 48
-78 103 -84 176 -6 82 11 127 72 192 55 59 113 96 163 107 17 3 36 12 41 18 5
7 26 65 46 131 l38 118 -21 27 c-47 58 -55 75 -59 128 -3 30 1 80 8 111 10 46
21 65 65 108 28 29 63 54 76 57 67 12 132 6 192 -19z m-783 -337 c0 -7 -4 -17
-9 -22 -4 -6 -68 -123 -140 -262 l-131 -251 79 -209 c44 -114 102 -268 131
-342 28 -73 50 -134 48 -136 -4 -4 -191 -25 -221 -25 -22 0 -30 17 -110 238
-48 131 -87 245 -87 252 0 23 -15 0 -58 -85 l-40 -80 -6 -175 c-4 -96 -9 -176
-11 -179 -10 -9 -210 -27 -214 -18 -1 4 2 121 8 260 6 139 18 401 26 582 8
182 15 342 15 357 0 32 6 34 131 43 l96 7 -4 -74 c-12 -207 -17 -408 -10 -408
4 0 7 7 7 15 0 14 140 298 212 430 l33 60 100 16 c129 21 155 22 155 6z m29
-25 c6 -11 5 -25 -3 -39 -10 -21 -11 -19 -11 17 0 45 1 47 14 22z m-489 -96
c0 -26 -6 -18 -14 19 -5 22 -4 26 4 15 5 -8 10 -24 10 -34z m455 -6 c-9 -16
-18 -30 -21 -30 -2 0 2 14 11 30 9 17 18 30 21 30 2 0 -2 -13 -11 -30z m-974
-21 c81 -62 109 -177 90 -366 -14 -134 -39 -199 -107 -272 -30 -32 -54 -64
-54 -70 0 -8 89 -320 126 -445 4 -10 2 -16 -2 -14 -5 3 -56 -1 -114 -7 -58 -7
-108 -10 -111 -6 -4 3 -25 80 -48 171 -23 91 -49 187 -58 213 -15 48 -15 48
-56 45 -38 -3 -42 -6 -48 -37 -4 -19 -10 -122 -14 -228 l-8 -193 -31 -5 c-65
-11 -181 -22 -188 -18 -4 2 -6 30 -3 61 3 31 10 154 15 272 17 326 49 883 52
885 2 2 77 11 168 20 91 9 167 19 170 22 3 2 46 3 96 1 80 -3 95 -6 125 -29z
m-894 -64 c55 -17 105 -63 129 -121 22 -52 13 -422 -16 -734 -25 -260 -171
-390 -439 -390 -65 0 -86 5 -132 28 -46 23 -58 35 -84 86 l-30 60 2 165 c3
236 29 585 49 651 33 110 85 176 173 220 91 45 257 62 348 35z m-626 -111 c-6
-22 -44 -194 -85 -384 -90 -413 -173 -777 -180 -789 -6 -9 -234 -37 -241 -29
-3 3 -22 157 -43 344 -36 317 -39 336 -49 289 -44 -196 -145 -624 -152 -641
-8 -19 -23 -23 -121 -34 -61 -6 -113 -10 -116 -8 -6 7 -126 1159 -121 1165 6
6 208 26 212 21 3 -3 19 -169 35 -369 17 -200 31 -373 33 -384 2 -11 9 7 16
40 7 33 37 170 67 305 30 135 64 288 76 342 l21 96 44 6 c23 3 63 9 88 12 33
5 46 3 49 -7 2 -8 20 -169 41 -359 20 -190 40 -363 44 -385 6 -38 7 -36 24 50
63 334 120 638 129 687 l11 56 96 7 c53 3 103 7 111 9 22 3 22 2 11 -40z
m2014 -111 c-9 -15 -13 -19 -9 -8 4 11 10 36 13 55 5 32 6 33 9 8 2 -15 -4
-40 -13 -55z m-3200 -10 c-6 -15 -22 -135 -24 -180 -1 -7 -37 -16 -91 -24 -54
-7 -95 -18 -102 -27 -8 -9 -20 -136 -35 -376 -25 -412 -37 -564 -46 -573 -8
-7 -199 -35 -204 -29 -2 2 1 61 7 132 15 185 50 741 50 792 l0 44 -67 -7 c-38
-4 -88 -11 -112 -15 l-44 -8 7 106 c4 58 8 107 9 108 5 3 595 72 626 73 28 1
32 -2 26 -16z m322 -20 c-3 -10 -5 -4 -5 12 0 17 2 24 5 18 2 -7 2 -21 0 -30z
m430 -5 c-3 -7 -5 -2 -5 12 0 14 2 19 5 13 2 -7 2 -19 0 -25z m1230 -70 c-2
-18 -4 -6 -4 27 0 33 2 48 4 33 2 -15 2 -42 0 -60z m-2744 -25 c-8 -135 -14
-163 -31 -163 -12 -1 -280 -27 -298 -30 -1 0 -4 -19 -8 -42 -10 -77 -10 -198
0 -208 9 -9 119 -1 216 15 l27 4 -6 -107 c-3 -59 -7 -109 -9 -111 -1 -1 -58
-8 -126 -15 l-123 -11 -6 -30 c-4 -17 -7 -78 -8 -137 -1 -97 1 -108 17 -108 9
0 81 7 160 16 78 9 144 15 146 13 2 -2 1 -51 -3 -109 l-6 -104 -245 -28 c-135
-15 -258 -27 -274 -27 l-29 -1 6 98 c4 53 18 279 32 502 14 223 29 446 33 495
l7 90 240 26 c329 36 292 40 288 -28z m1094 -25 c-2 -13 -4 -3 -4 22 0 25 2
35 4 23 2 -13 2 -33 0 -45z m430 30 c-3 -7 -5 -2 -5 12 0 14 2 19 5 13 2 -7 2
-19 0 -25z m2060 -20 c-3 -7 -5 -2 -5 12 0 14 2 19 5 13 2 -7 2 -19 0 -25z
m-3560 -15 c-3 -10 -5 -4 -5 12 0 17 2 24 5 18 2 -7 2 -21 0 -30z m750 5 c-3
-8 -6 -5 -6 6 -1 11 2 17 5 13 3 -3 4 -12 1 -19z m-1465 2 c2 -6 0 -57 -4
-113 -4 -56 -18 -295 -32 -532 -15 -236 -29 -453 -32 -481 l-5 -52 -77 -6
c-42 -4 -94 -11 -115 -16 -27 -6 -39 -5 -42 3 -2 7 -38 127 -80 267 -43 140
-85 284 -95 320 l-18 65 -6 -65 c-3 -36 -13 -184 -22 -330 -8 -146 -17 -270
-19 -276 -3 -10 -193 -39 -202 -30 -4 4 65 1178 70 1182 9 7 222 22 227 17 4
-5 49 -149 100 -320 52 -172 95 -311 97 -310 3 3 43 592 43 636 0 29 0 29 83
39 116 13 125 13 129 2z m3435 -12 c-3 -8 -6 -5 -6 6 -1 11 2 17 5 13 3 -3 4
-12 1 -19z m-3410 -65 c-3 -10 -5 -2 -5 17 0 19 2 27 5 18 2 -10 2 -26 0 -35z
m2200 10 c-3 -10 -5 -4 -5 12 0 17 2 24 5 18 2 -7 2 -21 0 -30z m1200 -125
c-2 -24 -4 -5 -4 42 0 47 2 66 4 43 2 -24 2 -62 0 -85z m-1630 75 c-3 -10 -5
-4 -5 12 0 17 2 24 5 18 2 -7 2 -21 0 -30z m-1090 -35 c-2 -13 -4 -3 -4 22 0
25 2 35 4 23 2 -13 2 -33 0 -45z m1530 -5 c-3 -10 -5 -4 -5 12 0 17 2 24 5 18
2 -7 2 -21 0 -30z m-2220 -75 c-2 -18 -4 -4 -4 32 0 36 2 50 4 33 2 -18 2 -48
0 -65z m1790 -15 c-3 -10 -5 -4 -5 12 0 17 2 24 5 18 2 -7 2 -21 0 -30z m440
5 c-3 -7 -5 -2 -5 12 0 14 2 19 5 13 2 -7 2 -19 0 -25z m320 -20 c-3 -8 -6 -5
-6 6 -1 11 2 17 5 13 3 -3 4 -12 1 -19z m-1320 -25 c-3 -10 -5 -4 -5 12 0 17
2 24 5 18 2 -7 2 -21 0 -30z m2170 -116 c-2 -23 -3 -1 -3 48 0 50 1 68 3 42 2
-26 2 -67 0 -90z m2250 107 c-3 -3 -12 -4 -19 -1 -8 3 -5 6 6 6 11 1 17 -2 13
-5z m-3410 -41 c-3 -10 -5 -4 -5 12 0 17 2 24 5 18 2 -7 2 -21 0 -30z m3351
30 c-10 -2 -26 -2 -35 0 -10 3 -2 5 17 5 19 0 27 -2 18 -5z m-5221 -50 c-3
-10 -5 -2 -5 17 0 19 2 27 5 18 2 -10 2 -26 0 -35z m-380 -45 c-2 -18 -4 -6
-4 27 0 33 2 48 4 33 2 -15 2 -42 0 -60z m1810 20 c-2 -13 -4 -3 -4 22 0 25 2
35 4 23 2 -13 2 -33 0 -45z m-580 -20 c-3 -7 -5 -2 -5 12 0 14 2 19 5 13 2 -7
2 -19 0 -25z m-850 0 c-3 -8 -6 -5 -6 6 -1 11 2 17 5 13 3 -3 4 -12 1 -19z
m1880 -30 c-2 -13 -4 -5 -4 17 -1 22 1 32 4 23 2 -10 2 -28 0 -40z m-440 -25
c-3 -10 -5 -2 -5 17 0 19 2 27 5 18 2 -10 2 -26 0 -35z m-1210 -55 c-2 -13 -4
-3 -4 22 0 25 2 35 4 23 2 -13 2 -33 0 -45z m2790 20 c-3 -8 -6 -5 -6 6 -1 11
2 17 5 13 3 -3 4 -12 1 -19z m-3410 -65 c-2 -16 -4 -5 -4 22 0 28 2 40 4 28 2
-13 2 -35 0 -50z m1230 5 c-2 -13 -4 -3 -4 22 0 25 2 35 4 23 2 -13 2 -33 0
-45z m2180 20 c-3 -8 -6 -5 -6 6 -1 11 2 17 5 13 3 -3 4 -12 1 -19z m-1390
-50 c-3 -8 -6 -5 -6 6 -1 11 2 17 5 13 3 -3 4 -12 1 -19z m-2030 -120 c-2 -18
-4 -4 -4 32 0 36 2 50 4 33 2 -18 2 -48 0 -65z m5147 37 c3 -8 1 -15 -4 -15
-6 0 -10 7 -10 15 0 8 2 15 4 15 2 0 6 -7 10 -15z m-1347 -72 c-2 -16 -4 -5
-4 22 0 28 2 40 4 28 2 -13 2 -35 0 -50z m1114 50 c13 -16 12 -17 -3 -4 -10 7
-18 15 -18 17 0 8 8 3 21 -13z m172 0 c-7 -2 -21 -2 -30 0 -10 3 -4 5 12 5 17
0 24 -2 18 -5z m-5546 -25 c-3 -8 -6 -5 -6 6 -1 11 2 17 5 13 3 -3 4 -12 1
-19z m450 -165 c-2 -16 -4 -5 -4 22 0 28 2 40 4 28 2 -13 2 -35 0 -50z m-460
0 c-3 -10 -5 -4 -5 12 0 17 2 24 5 18 2 -7 2 -21 0 -30z m450 -125 c-3 -7 -5
-2 -5 12 0 14 2 19 5 13 2 -7 2 -19 0 -25z m1230 -10 c-3 -8 -6 -5 -6 6 -1 11
2 17 5 13 3 -3 4 -12 1 -19z"/>
<path d="M6007 6578 c-51 -49 -134 -179 -184 -287 -24 -53 -48 -104 -54 -113
-13 -25 -7 -23 72 18 127 67 243 222 253 339 6 82 -28 99 -87 43z m47 -7 c-52
-32 -127 -137 -211 -296 -29 -55 -53 -96 -53 -91 0 17 112 221 155 282 46 64
108 124 128 124 7 0 -2 -9 -19 -19z"/>
<path d="M5099 6497 c-19 -12 -60 -59 -91 -102 -135 -187 -237 -467 -214 -589
9 -50 28 -46 75 17 45 60 249 446 292 554 32 78 34 95 19 124 -14 25 -39 24
-81 -4z m-22 -86 c-25 -26 -60 -74 -77 -105 -18 -31 -34 -56 -37 -56 -2 0 8
23 24 52 25 47 117 158 130 158 3 0 -15 -22 -40 -49z m-139 -216 c-6 -14 -13
-23 -15 -21 -5 5 15 46 22 46 3 0 -1 -11 -7 -25z m-77 -182 c-12 -20 -14 -14
-5 12 4 9 9 14 11 11 3 -2 0 -13 -6 -23z m-34 -115 c-3 -8 -6 -5 -6 6 -1 11 2
17 5 13 3 -3 4 -12 1 -19z m-10 -95 c-3 -10 -5 -2 -5 17 0 19 2 27 5 18 2 -10
2 -26 0 -35z"/>
<path d="M3402 6328 c-35 -18 -73 -106 -74 -175 -1 -74 14 -122 51 -157 33
-32 52 -27 80 20 66 112 67 279 2 314 -24 12 -29 12 -59 -2z m28 -31 c0 -2
-12 -14 -27 -28 l-28 -24 24 28 c23 25 31 32 31 24z m-73 -149 c-3 -7 -5 -2
-5 12 0 14 2 19 5 13 2 -7 2 -19 0 -25z m0 -90 c-3 -8 -6 -5 -6 6 -1 11 2 17
5 13 3 -3 4 -12 1 -19z"/>
<path d="M3112 5953 c-78 -170 -108 -316 -78 -386 8 -21 22 -40 31 -43 60 -23
166 60 252 198 69 110 71 118 41 118 -28 0 -113 42 -141 69 -10 9 -28 43 -41
74 l-23 57 -41 -87z m39 0 c-12 -20 -14 -14 -5 12 4 9 9 14 11 11 3 -2 0 -13
-6 -23z m-67 -162 c-14 -39 -29 -107 -33 -149 -7 -65 -9 -69 -9 -27 -1 28 3
70 8 95 12 51 51 162 56 157 2 -2 -8 -36 -22 -76z m226 43 c0 -2 -9 0 -20 6
-11 6 -20 13 -20 16 0 2 9 0 20 -6 11 -6 20 -13 20 -16z"/>
<path d="M9178 6897 c-93 -56 -234 -248 -301 -408 l-15 -36 50 19 c152 57 249
136 303 244 32 67 46 164 25 189 -16 19 -18 19 -62 -8z m-38 -82 c-24 -25 -46
-45 -49 -45 -3 0 15 20 39 45 24 25 46 45 49 45 3 0 -15 -20 -39 -45z m-60
-69 c0 -2 -8 -10 -17 -17 -16 -13 -17 -12 -4 4 13 16 21 21 21 13z m-120 -176
c-6 -11 -13 -20 -16 -20 -2 0 0 9 6 20 6 11 13 20 16 20 2 0 0 -9 -6 -20z"/>
<path d="M8515 4996 c-84 -38 -82 -166 4 -223 110 -74 243 30 196 153 -28 75
-119 106 -200 70z"/>
<path d="M8806 4957 c3 -10 9 -15 12 -12 3 3 0 11 -7 18 -10 9 -11 8 -5 -6z"/>
<path d="M8296 4280 c-37 -12 -66 -38 -82 -77 -18 -43 -18 -114 1 -139 14 -18
14 -17 5 9 -5 16 -10 38 -10 50 1 12 9 -2 19 -31 24 -70 39 -84 98 -89 113
-11 187 110 133 217 -31 61 -88 82 -164 60z m115 -240 c-13 -11 -28 -20 -35
-20 -6 0 3 9 19 19 39 25 46 25 16 1z"/>
<path d="M8954 3970 c-66 -26 -85 -120 -35 -171 82 -82 201 24 146 131 -18 36
-73 55 -111 40z"/>
<path d="M8155 3950 c10 -11 20 -20 23 -20 3 0 -3 9 -13 20 -10 11 -20 20 -23
20 -3 0 3 -9 13 -20z"/>
<path d="M6658 4423 c-35 -3 -61 -10 -69 -20 -13 -15 -31 -312 -21 -341 4 -10
18 -12 56 -7 88 11 124 24 149 54 21 26 25 42 31 151 8 144 -1 171 -57 168
-17 -1 -58 -3 -89 -5z m-61 -260 c-2 -16 -4 -3 -4 27 0 30 2 43 4 28 2 -16 2
-40 0 -55z"/>
<path d="M5819 4341 c-46 -14 -69 -31 -85 -62 -18 -35 -39 -258 -50 -536 l-7
-181 27 -27 c25 -25 33 -27 87 -23 63 5 97 26 125 80 21 41 56 640 40 702 -11
43 -76 65 -137 47z m-102 -553 c-3 -7 -5 -2 -5 12 0 14 2 19 5 13 2 -7 2 -19
0 -25z m-10 -155 c-2 -21 -4 -6 -4 32 0 39 2 55 4 38 2 -18 2 -50 0 -70z"/>
</g>
</svg>
